/* XPM */
static char *Untitled_20design[] = {
/* columns rows colors chars-per-pixel */
"64 64 252 2 ",
"   c #020102",
".  c #0C0302",
"X  c #06060B",
"o  c #0C0A0A",
"O  c #140400",
"+  c #1C0B03",
"@  c #180A06",
"#  c #150F0E",
"$  c #220E00",
"%  c #2A1300",
"&  c #271807",
"*  c #341D07",
"=  c #261816",
"-  c #2C1B16",
";  c #2C1D19",
":  c #321D18",
">  c #392306",
",  c #2D221F",
"<  c #34221C",
"1  c #3A251B",
"2  c #0F1B2E",
"3  c #172637",
"4  c #2C2C2D",
"5  c #362723",
"6  c #392721",
"7  c #3D2B25",
"8  c #3C2E2A",
"9  c #38302E",
"0  c #373434",
"q  c #3B3B3B",
"w  c #4E1B15",
"e  c #651C19",
"r  c #462A04",
"t  c #40260F",
"y  c #4C3209",
"u  c #573502",
"i  c #4A2C16",
"p  c #58281A",
"a  c #663E00",
"s  c #662B18",
"d  c #452C22",
"f  c #412F29",
"g  c #463327",
"h  c #44322C",
"j  c #57372B",
"k  c #433632",
"l  c #483630",
"z  c #453935",
"x  c #4C3A34",
"c  c #6B2E26",
"v  c #693424",
"b  c #773927",
"n  c #694202",
"m  c #764A04",
"M  c #704E14",
"N  c #554739",
"B  c #6D4D2C",
"V  c #7A4528",
"C  c #6A5723",
"Z  c #182E4A",
"A  c #27394D",
"S  c #183C66",
"D  c #463F42",
"F  c #364451",
"G  c #1C516A",
"H  c #2B4A6A",
"J  c #274C77",
"K  c #086D7C",
"L  c #116C7A",
"P  c #326E77",
"I  c #57504C",
"U  c #66544F",
"Y  c #6C615E",
"T  c #7D7050",
"R  c #555D67",
"E  c #47737A",
"W  c #676665",
"Q  c #6D6C6F",
"!  c #F33936",
"~  c #874F09",
"^  c #895503",
"/  c #895706",
"(  c #925D08",
")  c #99680F",
"_  c #A76B08",
"`  c #A66A0D",
"'  c #A97015",
"]  c #BA7C18",
"[  c #85492C",
"{  c #905635",
"}  c #B55A25",
"|  c #946E32",
" . c #AF7631",
".. c #C3792D",
"X. c #946D53",
"o. c #AC7253",
"O. c #917A67",
"+. c #B47B6F",
"@. c #F15852",
"#. c #C87754",
"$. c #EE6958",
"%. c #F2746B",
"&. c #B58B15",
"*. c #BE801D",
"=. c #B88E27",
"-. c #BE8735",
";. c #BF8B3B",
":. c #C0811D",
">. c #CA9A14",
",. c #EBB116",
"<. c #C78926",
"1. c #D2942E",
"2. c #C48C38",
"3. c #CA923B",
"4. c #D79A38",
"5. c #DEA13E",
"6. c #CFB230",
"7. c #EBB32C",
"8. c #E2A33F",
"9. c #F9C81A",
"0. c #F6CC2C",
"q. c #B3884A",
"w. c #A08767",
"e. c #C89443",
"r. c #D2904D",
"t. c #E89050",
"y. c #D5B350",
"u. c #E3A542",
"i. c #EAAC48",
"p. c #EBB052",
"a. c #D08C6A",
"s. c #EF886C",
"d. c #D5AF73",
"f. c #EDB171",
"g. c #F7D946",
"h. c #FAE55A",
"j. c #D9C761",
"k. c #F1C575",
"l. c #F9E56B",
"z. c #2A5788",
"x. c #335C88",
"c. c #325F93",
"v. c #0D7281",
"b. c #167989",
"n. c #1A7E8D",
"m. c #386B8F",
"M. c #247B89",
"N. c #2A7C8A",
"B. c #476F95",
"V. c #6F7C8C",
"C. c #587CA2",
"Z. c #1C808E",
"A. c #2B818F",
"S. c #35818C",
"D. c #2B8A98",
"F. c #338591",
"G. c #378B98",
"H. c #2E909F",
"J. c #37909E",
"K. c #39919F",
"L. c #2F91A0",
"P. c #3294A3",
"I. c #3A95A4",
"U. c #488C97",
"Y. c #718F9B",
"T. c #5D81A6",
"R. c #4A9AA7",
"E. c #5899A4",
"W. c #718EAC",
"Q. c #639BA4",
"!. c #6A9DA4",
"~. c #4DA0AD",
"^. c #55A0AC",
"/. c #5CA3AE",
"(. c #42A3B2",
"). c #46A8B7",
"_. c #47A9B8",
"`. c #6DA5AE",
"'. c #75A2AA",
"]. c #7DA5AC",
"[. c #6BA8B2",
"{. c #72AAB3",
"}. c #7BAAB1",
"|. c #6EB0B9",
" X c #78B2BB",
".X c #7DBBC6",
"XX c #8C8E8C",
"oX c #9B9B9B",
"OX c #AA9382",
"+X c #A39E9C",
"@X c #B1A89B",
"#X c #8B99A9",
"$X c #84ABB0",
"%X c #87B4BC",
"&X c #99B7B9",
"*X c #A6A9A8",
"=X c #B3AFA9",
"-X c #A9B7B9",
";X c #B4BBBA",
":X c #E09288",
">X c #D5B192",
",X c #E9B48E",
"<X c #F4BA84",
"1X c #CEB4A7",
"2X c #EFBBAC",
"3X c #BFC6B5",
"4X c #F7C88E",
"5X c #EDCA93",
"6X c #F6C796",
"7X c #FCF594",
"8X c #C8CBBA",
"9X c #D4C8B6",
"0X c #EACAAD",
"qX c #F5C9A3",
"wX c #FAD4A7",
"eX c #F9DAB5",
"rX c #FBE2B9",
"tX c #FBF2B1",
"yX c #89BDC5",
"uX c #9ABEC2",
"iX c #AABFC1",
"pX c #8BC1CA",
"aX c #9DC2C5",
"sX c #A4C2C3",
"dX c #A8C4C7",
"fX c #ABC9CA",
"gX c #B4C4C6",
"hX c #B9C4C6",
"jX c #B9C9C7",
"kX c #B8C9C9",
"lX c #B0CDD2",
"zX c #BAD2D4",
"xX c #C3C2C2",
"cX c #C7C8C5",
"vX c #C3CBCB",
"bX c #CCCCCC",
"nX c #D3D2CA",
"mX c #C5D5D3",
"MX c #C9D8D7",
"NX c #D4D3D2",
"BX c #D7DBD7",
"VX c #DDDDDD",
"CX c #F3DEC7",
"ZX c #E0DFDF",
"AX c #F9E8C8",
"SX c #F2ECD5",
"DX c #FDF6D6",
"FX c #D2DFE1",
"GX c #E0DFE0",
"HX c #D5E3E5",
"JX c #F0EFED",
"KX c #FCF8E5",
/* pixels */
"gXjXmXmXmXMXmXmXjXjXmXmXmXMXmXmXkXkXmXMXmXmXmXmXjXkXzXMXMXMXMXmXgXjXmXmXMXmXmXmXjXcXmXzXmXmXMXmXjXjXmXmXmXMXmXmXjXjXmXMXmXzXzXMX",
"jXjXfXfXfXfXfXdXaXiXdXfXfXfXfXfXkXkXgXfXfXfXgXdX-X-XfXfXfXiXiXiXgXgXdXiX-XsXsXsX&X&X3XaXaX3X&X-X3XfXsXaXuXaXsXaX&X&XuXaXaX3XaXaX",
"bXgX{./././././.^.^././././.^.|.kXhX%X}.&XuXuXuXaX&XaXuXuXuX%XiXMXNX&X$X$X}.$X$X].].}.].{.$X!.].vXjXE.A.F.F.F.F.A.F.F.F.F.F.F.F.",
"NXgX/.I.K.I.P.P.J.K.K.K.K.K.I./.kXhX'.{.zXhX-X-X-X-X-X-X-X-X*X*X;X=X-X-X-X-X*X-X3X8X8X8XcX8X8X9XSXFXU.K v.v.v.v.K v.K v.v.v.K K ",
"NXgX/.I.F.N.A.A.A.A.A.A.A.F.J./.kXkX%XiXvXY k l l l l z x j B d d c N I U I z I q.e.f.k.k.f.k.k.4XBXR.L b.n.n.b.b.b.Z.b.Z.b.K K ",
"NXfX/.J.N.M.M.M.M.M.M.M.M.A.K./.gXNXMXvX+X8 O @ @ @ + * [ b V c p [ p 6 = & . & ( *.5.5.8.8.4.4.p.nXE.v.n.Z.Z.Z.Z.Z.Z.Z.Z.Z.v.v.",
"NXgX/.I.A.M.M.M.M.M.M.M.M.A.J.[.zXGXbXY 8 < - - = 1 b [ [ [ b c b b V b * + X & / *.5.8.:.:.*.*.y.8XE.K b.Z.n.n.Z.Z.Z.b.Z.b.v.v.",
"NXgX/.I.A.M.M.M.M.M.M.M.M.A.J.|.MXNX+X8 @ : 1 1 B { [ [ [ b v V [ b b p v 1 & y ' <.4.4.' _ ) ) q.8XR.K b.Z.n.n.n.Z.Z.Z.Z.Z.b.K ",
"NXgX/.J.D.M.M.M.M.n.M.M.M.N.I.yXbXW 8 < ; : < N { [ b V c s c { c c e c e p M ) 3.4.<.' m n n a X.cX XF.Z.n.n.n.Z.Z.Z.Z.Z.n.v.v.",
"NXkX/.J.N.M.M.M.M.M.M.M.M.A.|.MX*X8 + : < 5 h { | [ b e e e e s p e w e e c ) <.3.2.' ( u y y t N *XhXuXP.b.n.n.b.b.b.n.b.b.v.K ",
"NXgX/.I.D.M.M.M.M.M.N.U.E.`.HXMXU ; : : 6 8 B X.{ [ p v U U B j j g b c B d [ 4.) m m m i g d g 8 9 W hX XR.R.R.R.R.R.(.R.J.b.v.",
"NXgX/.J.N.M.M.M.M.b.U.sX-X-XbX*Xh - 5 5 7 f [ { [ b I 1XAXeXwX6X2X>X2X1Xk.a.{ -.M u y y 1 5 < 7 : @ 5 oXgXmXMX8X3X3X3X3XcXdXG.K ",
"NXfX/.K.N.M.M.M.N.U. XgXW k k f < : 5 f x 7 b { { w w.JXeXwXwXwXwX6X6X6X<X4X{ m n u & & @ + + + + @ $ 8 W VXSXd.2.e.e.2.d.cXK.K ",
"NXgX/.I.D.N.N.M.R.iXgXoX8 O @ + : 6 7 l x 8 s [ v w =XDXwXAXAXeXwX4X6X<Xf.<X{ u u r @ . O @ O O O O O . 9 1X0X3.] ] ] &.e.3XU.K ",
"NXkX/.I.I.J.R.^.yXkXW 9 , : : ; 6 f l x x h p [ b 1 9XDXAX,X:X<XrXwX6X4X6XqXr.u % $ O O @ O O O O O O . > | e.5.5.5.8.5.k.8XK.K ",
"NXiX{.^./.|.yXzXlXoX9 # ; < 5 : 7 l x x x 8 : b b e 9XKXa.>X:Xt.#.>XqX4Xs.a.#.y % O O O . @ O O O O + % y ` <.u.i.p.i.8.k.8X^.A.",
"hXkXfXfXzXFXvX*XY 0 , : , 5 6 7 h x x l h 8 w { [ e 1XwX2X:Xo.<X,X,XwXwXt.t...r $ O O O O O O O O O & m ' 3.u.i.u.3.e.p.5XSXlXaX",
"hXkXfXiXzXvXW 0 ; - , : : < f l x l l f h f : [ [ e 1XCXo.1X+XO.d.6XwX2XX.b ~ u $ O O O O O O O O . & ) :.5.i.p.3.j N 9XZXBXgXuX",
"NXkX`.R.yX;X0 X ; < < < 6 f l x l l f h h h : c [ e OXrXw.JXoXl +.4XeXd.O.U { M i * $ O O O O O @ X - ( :.u.u.2.| & q -X'.E P P ",
"NXiXE.[.HXvXq o ; 5 : < f x x x h f h h h 6 x 1XqX} o.eX9XDXSX1XqX4XeX2X2X1Xf.3.2.| * O O O O O O X - ( ] 5.e.B > o q -XQ.P P L ",
"NXiX{.lXBX*X0 # ; 5 < f l x x x h f h h h - { #.,Xr.o.KXwX6XwXf.f.6XeXwXp.f.6Xi.i.3.M - + O O O O X & ( *.u.;.> . . 4 oX3X&XU.N.",
"NXiX%XiXW 4 , ; : < f x x x l h h h h h h = U 2Xf.,X+.JXKXDXrXwXwXwXAXKX,X<XqX1.8.i.3.| * . O @ @ . * ( *.u.e.t O @ # 7 W ;X'.S.",
"NXiX%X&Xq . ; < 6 d x x x x h h h h h f 7 < = O.,X1X+.KXKXKXSXeXwX0XqX0Xa.f.<X] 1.8.i.e.M * + O O . * ( *.u.;.t O O O . q *XQ.S.",
"NXiX X-Xk O ; 6 h x x x x x h h h h f 7 < 1 - 7 D # O.KXDXDXrX6XrX>Xa.d.f.4Xa.` ] <.8.8.3.| * . O O * ( *.u.;.> O O O O z *XQ.S.",
"NXiX X-Xz @ - 6 l x x x x l h h h h f < : < < : = O 8 SXDXAXwX,Xa.a.a.a.r.<X#.m ) ] r.d.p.e.M - + O * ( ] 8.;.t O O O O k *XE.N.",
"NXvXsX-Xz @ - 6 l x x x l h h h f h f 1 < < < < - +   O.KXAXeXwXa.o.a.#.f.f.y r ~ q.bXoXw.q.4.| * . * ( <.u.;.t O O O O z ;X%XQ.",
"VXVXkX+X9 + : 6 x x x x l f f h h h f 5 , < < < ; + O . w.SXAXeXeXwX6XqX4X[ . % a T -X+XY.C p.e.j @ * ( ] u.;.t O O O O 8 oXkXMX",
"VXbXW 0 5 ; : 6 x x x x h h h h h h f < < < : : - + O O O N 1XeXeXwXeXAXq.O O $ + I XXXXQ B i.i.| * & ) ] 8.;.t O O O O # 4 W NX",
"VXiX0 . ; < : 6 x x x x l f h h h h f 5 : < < < - + O @ O   N 2X,X,Xj.o.: O O O . U =X>Xw.| 1.i.3.y 1 ' <.u.2.t O O O O O   0 xX",
"GXcXq o ; < < 6 x x x x h h h h h h f < < < < < ; + @ @ * M p.0X,Xr.} } a O O O + =XrXf.6X3.] <.2.m m 2.u.i.2.t O O @ O @ O z cX",
"GXxXq o ; 6 : 6 l x x l h h h h f f 7 5 < < < : : @ O C j.7Xf.t.s...d.l.0.M O O 1 CXqXs.<Xe.( *.=.( ) 1.u.i.;.t O O O O O O z cX",
"GXxXq o ; : < 6 l x l h h h h h f 6 1 < : < < < ; O ) l.tXAXDXrXtXSXDX7Xh.7.r . 1 0X0Xf.,Xb n ( ` / / ' <.u.;.t O O O O O O x cX",
"MXkXq o ; < < 6 l x h h h h h h 8 < - < < < , 1 = u ,.5XAXKXJX2X0X2XeXtXl.g.&.@ o 1XeXf.r.* $ r ~ ^ ^ _ ] u.2.t O O @ O O O k cX",
"MX1Xq o ; < < 6 l x h h h h f h g 1 < < < < < , 1 6.,.,XDXJX:X%.@.%.%.wX7Xp.,.M 5 9X>X$. .@ O % a m ^ ` *.u.;.t O O O O O O l cX",
"GXxXq o = < < 6 l x h h h h h h 7 < < < < < < = | 9.>.j.DXwX$.:X! @.%.s.7Xp.,.k.9XeX6XX.= O O O * a ^ ` :.8.;.t O O O @ O O x xX",
"GXxXq o ; < < 6 l x h h h h h h h < < < < < ; 1 6.9.,.y.AX%.$.@.:X%.@.$.f.7.t.SXCXeX>Xo . O O O % a ^ ` ] 8.;.t . O @ O O O x cX",
"GXhXq o ; : < 6 l x h h h h h h 8 < < < < < ; | 0.,.,.=.5Xs.wXf.s.%.4Xs.u.6.y.CXwX6XN . O O O O % a / ` ] u.;.t O O O O O . z bX",
"GXxXq o - < < 6 l x h f h h h h g < < < < < 7 1X4X] ) y y.t.f.$.4Xp.t.t.r.) q.2X,XX.O O O O O O % a / ` :.8.2.t O + O O O O x xX",
"ZXxXl O - 1 < 6 l x h h h h h h h < < < < < g >XeX1 o $ j.p.p.y.7Xl.8.7.1.( (  .2.| * . O @ O O % a ^ ` :.u.2.t O O O O O O k xX",
"ZXxXk @ - < < 6 l x h h h h f h 7 < < < < < 8 9X0X< . + y.h.l.l.l.h.h.h.=.~ ( _ 1.-.v * $ O O O % a ^ ` ] u.2.1 O O O O # 5 Y NX",
"ZX8Xz O ; 6 : 6 l x h h h h h h h < < < < : 7 >X6X= . O =.g.g.g.g.g.g.0.) > m _ &.' =.| * . O O % a ^ ` *.8.;.t O O O O 8 oXhXMX",
"GXxXz O ; : 5 6 l x h h h h h h 7 7 < < < < 5 0X6X- O O >.0.0.0.0.0.9.9.m o m m ( _ 1.2.M > + O % n / ` *.8.;.t O O O O z -XyX^.",
"VXxX0 . ; 5 : 6 l x h h h h h h h 8 7 < < , , a.,X= O O >.9.9.9.7.9.9.9.m . & r ^ _ _ ] -.| * . % a / ` *.8.;.t O O O . z *XE.D.",
"VXbXW 0 , ; : 6 l x l h h h h f h h g < < , = O.,X= O % ,.9.9.9.9.9.9.,.y . . $ a ^ ( _ 1.=.v * * a ^ ` *.u.;.t O O $ 8 Y iX/.N.",
"VXVXvXoX0 # : 6 l x x l h h h f h h f < < < - O.qXN & = T T T X.T =.T u & . O @ % r ^ _ _ ' -.| > u / ' *.5.;.t O O 8 oXhXiXR.F.",
"NXzXlX-Xq o ; 6 l x x x h h h h h h f 6 < < & O.O.B = , !.m.z.B.z.v.z.Z + O O @ . % n ^ ( _ 1.-.M n ^ ` *.u.;.t O O z -X XU.F.N.",
"NXiXyX-X0 o ; 6 l x x x h h h h h h h f 7 1 - x O.k & < ].C.B.C.B.z.z.F % O @ O O @ $ > ^ _ _ ] =./ ^ ` *.u.e.t . . g *XU.L L L ",
"NXiXuXgXW 9 ; : h x x x l h h h h h h h f 1 < < j f & A W.C.x.c.c.z.z.A % O O O O O . & n ^ ( _  .( ^ ` ] 1. .> O 5 Y -XQ.S.S.m.",
"xXkXmXVXMX=XY k 6 < h l x l h h h h h h f 6 < < < : = R W.B.z.2 H c.z.F % O O O O O O $ % r a ^ ( ^ ^ ) ` ) M j U =XNXHXkXaX3XpX",
"kXkXgXzXMXFXvX+X8 @ : f x x h h h h h h h f 7 < < < 6 Y.C.z.S   S c.z.F % O O O O O O O O O % r m ^ m ^ m u C @XzXMXzXfXdXdXsXaX",
"bXhX$X'.'.$XfXxXY 8 , < f l l h h h h h h h f 6 : : I W.B.J 3 o A c.z.F % $ O O O O O O O O O % a ^ m m M C w.cX XU.G.F.F.F.F.F.",
"NXkX'.E.Q.Q.{.zXbX+X8 @ < f l l h h h h h h h f f : R T.B.J X 2 J c.z.I r * $ O O O O O O O O @ > n m u C @X3XsXG.v.b.b.b.b.n.n.",
"NXkX'.Q.!.[.{.%XlXvXY 8 , < f l h h h h h h h h f f Y.C.c.S   3 J z.J A a r % $ O O O O O O O O $ u m C w.vX.X~.L.D.D.D.D.H.P.(.",
"NXhX'.Q.{.{.{.`.yXmXvXoX8 @ : f l l x h h h h h d I #XC.x.2   3 x.x.J q n a y * $ O O O O O @ O $ r C @XvXlX).H.L.L.L.L.L.P.(.).",
"NXhX'.Q.`.{.{.{.`.yXlXvXY f < < h x x h h h h h 7 Q W.x.H 2   Z m.c.J 4 m m a u % $ @ O O O O O & N X.jX.X~.H.H.L.L.L.H.L.P.(.).",
"bXgX'.Q.`.{.{.{.[.W.yXMXNX+X8 @ 7 x x x l h h h x #XW.c.S .   3 B.B.z.3 n m u * * % $ O O O O O 9 @XcXsX~.D.H.H.H.L.L.L.L.L.(.).",
"xXiX'.Q.`.{.`.{.{.{.{.uXJXVXY 9 7 h h l h h 8 7 D #XC.x.Z     3 c.B.J 2 * * X X X & * $ $ + O + U vX XG.H.L.L.L.L.L.L.L.L.P.(._.",
"xXiX'.Q.`.{.{.{.{.{.`.yXFXHXNX+Xh - 7 6 6 1 5 < Q C.B.z.2 X   Z B.z.z.3   X X X @ u y > r > @ 5 =XMXU.v.D.L.L.L.L.L.L.L.L.P.(.).",
"NXiX'.Q.`.{.{.{.{.{.{. XyXsXJXGXY ; ; ; ; ; = 5 C.C.m.H X X   Z B.J S 2 X X X X y m a u u r d W NXzXG.b.D.L.L.L.L.L.L.L.L.P.(.).",
"NXxX'.Q.`.{.[.{.{.[.{.{.`..XHXJX*X0 . o o o . ; V.R x.S X o   A J I H 3 X X X & n m n n y C @XNXGXfXF.b.D.L.L.L.L.L.L.L.L.P.(.).",
"NXvX].Q.`.{.{.{.{.{.{.{.{.[.yXHXNXW q q z q 4 Y GX*XH # X X   3 E NXSXQ   X o y | | | | C O.BXVXNXiXU.b.D.L.L.L.L.L.L.L.L.P.)._.",
"NXiXW.Q.`.[.`.`.`.`.`.`.`.`.!.uXHXbX-X-X-X;X*XZXJXbX4 X X       Y JXKXbX4   O h @XSXnX8X;X;X;X'.iXiXF.b.L.P.L.P.P.P.L.P.L.P.(._.",
"NXhX'.Q.!.!.Q.!.!.!.Q.Q.Q.Q.Q.].vXMXpX X XpXmXBXGXvXq     = k 9 W NXZXbX0 # 0 Y nXHX3XY.U.V.E E ;XiXN.n.P.(.(.(.(.(.(.(.(.(.).).",
"NXhX'.Q.Q.Q.E.Q.Q.Q.Q.Q.Q.Q.Q.].jXfX[.R.~. XFXoXW q X   X +XNXoX4 I R I X I bXNXMX'.E G G G G E ;XiXG.n.(.).).).)._.).).).).).)."
};
